Coordinates
version=1
nRows=7
nColumns=40
inDegrees=yes

Units are S.I. units (second, meters, Newtons, ...)
Angles are in degrees.

endheader
time	pelvis_tilt	pelvis_list	pelvis_rotation	pelvis_tx	pelvis_ty	pelvis_tz	hip_flexion_r	hip_adduction_r	hip_rotation_r	knee_angle_r	knee_angle_r_beta	ankle_angle_r	subtalar_angle_r	mtp_angle_r	hip_flexion_l	hip_adduction_l	hip_rotation_l	knee_angle_l	knee_angle_l_beta	ankle_angle_l	subtalar_angle_l	mtp_angle_l	lumbar_extension	lumbar_bending	lumbar_rotation	arm_flex_r	arm_add_r	arm_rot_r	elbow_flex_r	pro_sup_r	wrist_flex_r	wrist_dev_r	arm_flex_l	arm_add_l	arm_rot_l	elbow_flex_l	pro_sup_l	wrist_flex_l	wrist_dev_l
      5.66000000	     -3.66918861	     -3.61867423	     -6.14798238	      0.83761787	      0.92017862	      0.44382777	     26.42276679	      1.16616736	    -13.88812905	     13.26467735	     13.26467735	      2.41026990	      7.00538625	      7.84094894	     -2.10122139	     -4.10687044	    -13.94100481	     12.66019975	     12.66019975	     18.86950674	     -5.83833672	     -5.91798618	     -8.63467635	      2.93762268	      2.55033718	    -14.17800703	    -17.10312023	    -10.16174144	     24.94104603	     47.49911598	      0.00000000	      0.00000000	     15.59085099	    -13.77911591	     -8.34541090	    101.24570218	     48.08960838	      0.00000000	      0.00000000
      5.67271429	     -3.61403825	     -3.80243302	     -6.25056948	      0.83950836	      0.91858678	      0.44660805	     26.13656981	      1.67903377	    -13.89633367	     13.18333677	     13.18333677	      2.11909150	      6.98129426	      7.21401659	     -2.87638350	     -4.40631272	    -13.93399948	     12.72108209	     12.72108209	     19.43433109	     -5.87325969	     -5.55301671	     -8.44178849	      3.18663209	      2.73432132	    -13.90061013	    -16.81066991	    -10.21072195	     24.97458898	     47.48763524	      0.00000000	      0.00000000	     15.43460593	    -13.63702118	     -8.34618490	    102.74848334	     48.13602468	      0.00000000	      0.00000000
      5.68542857	     -3.55287413	     -3.94424759	     -6.26165892	      0.84144387	      0.91702099	      0.44922762	     25.90232367	      2.08459391	    -13.64603765	     13.47152187	     13.47152187	      0.90653392	      6.12884967	      3.84629025	     -3.49346591	     -4.71301507	    -13.99487645	     13.12579627	     13.12579627	     20.64574382	     -5.55210610	     -4.04396633	     -8.33568602	      3.52385801	      2.01212911	    -12.98313841	    -16.54444738	    -10.40297446	     25.00357084	     47.45548094	      0.00000000	      0.00000000	     14.41720059	    -14.06293205	     -8.68148975	    104.95881559	     48.25925530	      0.00000000	      0.00000000
      5.69814286	     -3.46190149	     -4.11681816	     -6.23152566	      0.84340085	      0.91562739	      0.45200193	     25.76197436	      2.46028549	    -13.17041456	     14.29937737	     14.29937737	      0.09405935	      4.77762587	      0.84361296	     -4.01351484	     -5.10181811	    -13.91632722	     13.75106256	     13.75106256	     21.48185684	     -5.54339868	     -3.12133320	     -8.20930594	      3.86021090	      1.98596515	    -12.32304495	    -16.17656160	    -10.33634045	     24.78526354	     47.40936374	      0.00000000	      0.00000000	     14.14661243	    -14.03531472	     -8.53198069	    105.93376317	     48.33523866	      0.00000000	      0.00000000
      5.71085714	     -3.35402370	     -4.28534348	     -6.14803179	      0.84543522	      0.91443996	      0.45476171	     25.68461937	      2.74488612	    -12.71684160	     15.50173503	     15.50173503	     -0.37007502	      3.36948059	     -1.74784469	     -4.43337340	     -5.52168145	    -13.73154723	     14.57660255	     14.57660255	     22.09999296	     -5.71717215	     -2.48635338	     -8.09429389	      4.18790470	      1.87080208	    -11.61882486	    -15.79291164	    -10.27465112	     24.82060752	     47.34124026	      0.00000000	      0.00000000	     13.74661087	    -13.99223940	     -8.38152387	    106.71721452	     48.42470959	      0.00000000	      0.00000000
      5.72357143	     -3.25339012	     -4.47092747	     -5.99963222	      0.84734094	      0.91355137	      0.45752226	     25.70506091	      2.99640257	    -12.22685981	     17.02719603	     17.02719603	     -0.09040008	      1.94718125	     -2.53724572	     -4.60912655	     -6.01532141	    -13.33442609	     15.77961082	     15.77961082	     22.32202182	     -6.31202491	     -2.50627843	     -8.00034777	      4.57081925	      1.83816881	    -10.91373233	    -15.39310264	    -10.21546259	     25.04565350	     47.31520201	      0.00000000	      0.00000000	     13.43555004	    -13.95587184	     -7.94653276	    107.04638186	     48.42480140	      0.00000000	      0.00000000
      5.73628571	     -3.08168047	     -4.64119470	     -5.80669009	      0.84921263	      0.91305478	      0.46027880	     25.59682282	      3.20726554	    -11.78569400	     18.51688593	     18.51688593	      0.35685205	      0.65856033	     -3.18930337	     -4.64726288	     -6.54421308	    -12.87488238	     17.35423964	     17.35423964	     22.38116570	     -7.03105609	     -2.65034970	     -8.00952436	      4.92775522	      1.78278546	    -10.09432931	    -14.97103778	    -10.15026569	     25.30846166	     47.29489068	      0.00000000	      0.00000000	     13.11806390	    -13.95313578	     -7.53024033	    107.14747796	     48.41294320	      0.00000000	      0.00000000
